0
SECTION
2
HEADER
9
$INSUNITS
70
4
9
$ACADVER
1
AC1014
9
$HANDSEED
5
FFFF
0
ENDSEC
0
SECTION
2
TABLES
0
TABLE
2
VPORT
5
8
100
AcDbSymbolTable
0
ENDTAB
0
TABLE
2
LTYPE
5
5
100
AcDbSymbolTable
0
LTYPE
5
14
100
AcDbSymbolTableRecord
100
AcDbLinetypeTableRecord
2
BYBLOCK
70
0
0
LTYPE
5
15
100
AcDbSymbolTableRecord
100
AcDbLinetypeTableRecord
2
BYLAYER
70
0
0
LTYPE
5
16
100
AcDbSymbolTableRecord
100
AcDbLinetypeTableRecord
2
DASHED
70
0
3
Dashed __ __ __ __ __ __ __ __ __ __ __ __ __ _
72
65
73
2
40
0.75
49
0.5
74
0
49
-0.25
74
0
0
ENDTAB
0
TABLE
2
LAYER
5
2
100
AcDbSymbolTable
70
2
0
LAYER
5
50
100
AcDbSymbolTableRecord
100
AcDbLayerTableRecord
2
0
70
0
62
7
6
CONTINUOUS
0
ENDTAB
0
TABLE
2
STYLE
5
3
100
AcDbSymbolTable
70
1
0
STYLE
5
11
100
AcDbSymbolTableRecord
100
AcDbTextStyleTableRecord
2
STANDARD
70
0
0
ENDTAB
0
TABLE
2
VIEW
5
6
100
AcDbSymbolTable
70
0
0
ENDTAB
0
TABLE
2
UCS
5
7
100
AcDbSymbolTable
70
0
0
ENDTAB
0
TABLE
2
APPID
5
9
100
AcDbSymbolTable
70
2
0
APPID
5
12
100
AcDbSymbolTableRecord
100
AcDbRegAppTableRecord
2
ACAD
70
0
0
ENDTAB
0
TABLE
2
DIMSTYLE
5
A
100
AcDbSymbolTable
70
1
0
ENDTAB
0
TABLE
2
BLOCK_RECORD
5
1
100
AcDbSymbolTable
70
1
0
BLOCK_RECORD
5
1F
100
AcDbSymbolTableRecord
100
AcDbBlockTableRecord
2
*MODEL_SPACE
0
BLOCK_RECORD
5
1B
100
AcDbSymbolTableRecord
100
AcDbBlockTableRecord
2
*PAPER_SPACE
0
ENDTAB
0
ENDSEC
0
SECTION
2
BLOCKS
0
BLOCK
5
20
100
AcDbEntity
100
AcDbBlockBegin
2
*MODEL_SPACE
0
ENDBLK
5
21
100
AcDbEntity
100
AcDbBlockEnd
0
BLOCK
5
1C
100
AcDbEntity
100
AcDbBlockBegin
2
*PAPER_SPACE
0
ENDBLK
5
1D
100
AcDbEntity
100
AcDbBlockEnd
0
ENDSEC
0
SECTION
2
ENTITIES
0
LWPOLYLINE
5
100
100
AcDbEntity
8
0
100
AcDbPolyline
90
4
70
1
43
0.0
10
1.3999999999999995
20
-21.600000000000001
10
1.3999999999999995
20
21.600000000000001
10
105.59999999999999
20
21.600000000000001
10
105.59999999999999
20
-21.600000000000001
0
LWPOLYLINE
5
101
100
AcDbEntity
8
0
100
AcDbPolyline
90
64
70
1
43
0.0
10
86.709333333333348
20
-28.599999999999998
10
86.709333333333348
20
-27.339999999999996
10
84.709333333333348
20
-27.339999999999996
10
84.709333333333348
20
-28.599999999999998
10
80.424000000000007
20
-28.599999999999998
10
80.424000000000007
20
-27.339999999999996
10
78.424000000000007
20
-27.339999999999996
10
78.424000000000007
20
-28.599999999999998
10
74.138666666666666
20
-28.599999999999998
10
74.138666666666666
20
-27.339999999999996
10
72.138666666666666
20
-27.339999999999996
10
72.138666666666666
20
-28.599999999999998
10
67.853333333333339
20
-28.599999999999998
10
67.853333333333339
20
-27.339999999999996
10
65.853333333333339
20
-27.339999999999996
10
65.853333333333339
20
-28.599999999999998
10
61.568000000000005
20
-28.599999999999998
10
61.568000000000005
20
-27.339999999999996
10
59.568000000000005
20
-27.339999999999996
10
59.568000000000005
20
-28.599999999999998
10
55.282666666666671
20
-28.599999999999998
10
55.282666666666671
20
-27.339999999999996
10
53.282666666666671
20
-27.339999999999996
10
53.282666666666671
20
-28.599999999999998
10
48.997333333333337
20
-28.599999999999998
10
48.997333333333337
20
-27.34
10
46.997333333333337
20
-27.34
10
46.997333333333337
20
-28.599999999999998
10
42.712000000000003
20
-28.599999999999998
10
42.712000000000003
20
-27.34
10
40.712000000000003
20
-27.34
10
40.712000000000003
20
-28.599999999999998
10
36.426666666666669
20
-28.599999999999998
10
36.426666666666669
20
-27.34
10
34.426666666666669
20
-27.34
10
34.426666666666669
20
-28.599999999999998
10
30.141333333333336
20
-28.599999999999998
10
30.141333333333336
20
-27.34
10
28.141333333333336
20
-27.34
10
28.141333333333336
20
-28.599999999999998
10
23.856000000000002
20
-28.599999999999998
10
23.856000000000002
20
-27.34
10
21.856000000000002
20
-27.34
10
21.856000000000002
20
-28.599999999999998
10
17.570666666666668
20
-28.599999999999998
10
17.570666666666668
20
-27.34
10
15.570666666666668
20
-27.34
10
15.570666666666668
20
-28.599999999999998
10
11.285333333333334
20
-28.599999999999998
10
11.285333333333334
20
-27.34
10
9.2853333333333339
20
-27.34
10
9.2853333333333339
20
-28.599999999999998
10
1.399999999999999
20
-28.599999999999998
10
1.3999999999999995
20
-21.599999999999994
10
105.59999999999999
20
-21.599999999999994
10
105.59999999999999
20
-28.599999999999998
10
99.280000000000001
20
-28.599999999999998
10
99.280000000000001
20
-27.339999999999996
10
97.280000000000015
20
-27.339999999999996
10
97.280000000000015
20
-28.599999999999998
10
92.994666666666674
20
-28.599999999999998
10
92.994666666666674
20
-27.339999999999996
10
90.994666666666689
20
-27.339999999999996
10
90.994666666666689
20
-28.599999999999998
0
LWPOLYLINE
5
102
100
AcDbEntity
8
0
100
AcDbPolyline
90
4
70
1
43
0.0
10
96.000000000000014
20
-34.700000000000017
10
11.000000000000014
20
-34.700000000000017
42
0.99999999999999989
10
11.000000000000014
20
-39.900000000000013
10
96.000000000000014
20
-39.900000000000013
42
0.99999999999999989
0
LWPOLYLINE
5
103
100
AcDbEntity
8
0
100
AcDbPolyline
90
4
70
1
43
0.0
10
1.3999999999999995
20
-42.45000000000001
10
1.3999999999999995
20
-28.599999999999998
10
105.59999999999999
20
-28.599999999999998
10
105.59999999999999
20
-42.45000000000001
0
LWPOLYLINE
5
104
100
AcDbEntity
8
0
100
AcDbPolyline
90
4
70
1
43
0.0
10
1.4000000000000057
20
42.45000000000001
10
1.3999999999999995
20
-42.45000000000001
10
105.59999999999999
20
-42.45000000000001
10
105.59999999999999
20
42.45000000000001
0
LWPOLYLINE
5
105
100
AcDbEntity
8
0
100
AcDbPolyline
90
4
70
1
43
0.0
10
106.09999999999999
20
42.950000000000024
10
106.09999999999999
20
-42.95000000000001
10
0.89999999999999858
20
-42.950000000000017
10
0.90000000000001168
20
42.950000000000017
0
LWPOLYLINE
5
106
100
AcDbEntity
8
0
100
AcDbPolyline
90
4
70
1
43
0.0
10
0.90000000000000091
20
-42.95000000000001
10
106.09999999999999
20
-42.95000000000001
10
106.09999999999999
20
42.950000000000024
10
0.90000000000001634
20
42.950000000000017
0
LWPOLYLINE
5
107
100
AcDbEntity
8
0
100
AcDbPolyline
90
8
70
1
43
0.0
10
107.00000000000001
20
41.850000000000009
10
107.00000000000003
20
-41.850000000000009
42
-0.41421356237309503
10
105.00000000000001
20
-43.850000000000009
10
1.9999999999999931
20
-43.850000000000009
42
-0.41421356237309326
10
0
20
-41.850000000000009
10
-1.6653345369377348e-15
20
41.850000000000009
42
-0.41421356237309509
10
2.0000000000000004
20
43.850000000000009
10
105.00000000000001
20
43.849999999999994
42
-0.41421356237309503
0
LWPOLYLINE
5
108
100
AcDbEntity
8
0
100
AcDbPolyline
90
4
70
1
43
0.0
10
11.000000000000014
20
34.700000000000017
10
96.000000000000014
20
34.700000000000017
42
0.99999999999999989
10
96.000000000000014
20
39.900000000000013
10
11.000000000000014
20
39.900000000000013
42
0.99999999999999989
0
LWPOLYLINE
5
109
100
AcDbEntity
8
0
100
AcDbPolyline
90
4
70
1
43
0.0
10
1.3999999999999995
20
28.599999999999998
10
1.3999999999999995
20
42.45000000000001
10
105.59999999999999
20
42.45000000000001
10
105.59999999999999
20
28.599999999999998
0
LWPOLYLINE
5
110
100
AcDbEntity
8
0
100
AcDbPolyline
90
64
70
1
43
0.0
10
86.709333333333348
20
27.339999999999996
10
86.709333333333348
20
28.599999999999998
10
90.994666666666689
20
28.599999999999998
10
90.994666666666689
20
27.339999999999996
10
92.994666666666674
20
27.339999999999996
10
92.994666666666674
20
28.599999999999998
10
97.280000000000015
20
28.599999999999998
10
97.280000000000015
20
27.339999999999996
10
99.280000000000001
20
27.339999999999996
10
99.280000000000001
20
28.599999999999998
10
105.59999999999999
20
28.599999999999998
10
105.59999999999999
20
21.599999999999994
10
1.4000000000000057
20
21.599999999999994
10
1.3999999999999995
20
28.599999999999998
10
9.2853333333333339
20
28.599999999999998
10
9.2853333333333339
20
27.34
10
11.285333333333334
20
27.34
10
11.285333333333334
20
28.599999999999998
10
15.570666666666668
20
28.599999999999998
10
15.570666666666668
20
27.34
10
17.570666666666668
20
27.34
10
17.570666666666668
20
28.599999999999998
10
21.856000000000002
20
28.599999999999998
10
21.856000000000002
20
27.34
10
23.856000000000002
20
27.34
10
23.856000000000002
20
28.599999999999998
10
28.141333333333336
20
28.599999999999998
10
28.141333333333336
20
27.34
10
30.141333333333336
20
27.34
10
30.141333333333336
20
28.599999999999998
10
34.426666666666669
20
28.599999999999998
10
34.426666666666669
20
27.34
10
36.426666666666669
20
27.34
10
36.426666666666669
20
28.599999999999998
10
40.712000000000003
20
28.599999999999998
10
40.712000000000003
20
27.34
10
42.712000000000003
20
27.34
10
42.712000000000003
20
28.599999999999998
10
46.997333333333337
20
28.599999999999998
10
46.997333333333337
20
27.34
10
48.997333333333337
20
27.34
10
48.997333333333337
20
28.599999999999998
10
53.282666666666671
20
28.599999999999998
10
53.282666666666671
20
27.339999999999996
10
55.282666666666671
20
27.339999999999996
10
55.282666666666671
20
28.599999999999998
10
59.568000000000005
20
28.599999999999998
10
59.568000000000005
20
27.339999999999996
10
61.568000000000005
20
27.339999999999996
10
61.568000000000005
20
28.599999999999998
10
65.853333333333339
20
28.599999999999998
10
65.853333333333339
20
27.339999999999996
10
67.853333333333339
20
27.339999999999996
10
67.853333333333339
20
28.599999999999998
10
72.138666666666666
20
28.599999999999998
10
72.138666666666666
20
27.339999999999996
10
74.138666666666666
20
27.339999999999996
10
74.138666666666666
20
28.599999999999998
10
78.424000000000007
20
28.599999999999998
10
78.424000000000007
20
27.339999999999996
10
80.424000000000007
20
27.339999999999996
10
80.424000000000007
20
28.599999999999998
10
84.709333333333348
20
28.599999999999998
10
84.709333333333348
20
27.339999999999996
0
ENDSEC
0
SECTION
2
OBJECTS
0
DICTIONARY
5
C
100
AcDbDictionary
3
ACAD_GROUP
350
D
3
ACAD_MLINESTYLE
350
17
0
DICTIONARY
5
D
100
AcDbDictionary
0
DICTIONARY
5
1A
330
C
100
AcDbDictionary
0
DICTIONARY
5
17
100
AcDbDictionary
0
ENDSEC
0
EOF
